<svg width="48" height="49" viewBox="0 0 48 49" fill="none" xmlns="http://www.w3.org/2000/svg">
<path d="M10 14.5H12C13.0609 14.5 14.0783 14.0786 14.8284 13.3284C15.5786 12.5783 16 11.5609 16 10.5C16 9.96957 16.2107 9.46086 16.5858 9.08579C16.9609 8.71071 17.4696 8.5 18 8.5H30C30.5304 8.5 31.0391 8.71071 31.4142 9.08579C31.7893 9.46086 32 9.96957 32 10.5C32 11.5609 32.4214 12.5783 33.1716 13.3284C33.9217 14.0786 34.9391 14.5 36 14.5H38C39.0609 14.5 40.0783 14.9214 40.8284 15.6716C41.5786 16.4217 42 17.4391 42 18.5V36.5C42 37.5609 41.5786 38.5783 40.8284 39.3284C40.0783 40.0786 39.0609 40.5 38 40.5H10C8.93913 40.5 7.92172 40.0786 7.17157 39.3284C6.42143 38.5783 6 37.5609 6 36.5V18.5C6 17.4391 6.42143 16.4217 7.17157 15.6716C7.92172 14.9214 8.93913 14.5 10 14.5Z" stroke="#ACC8CE" stroke-width="4" stroke-linecap="round" stroke-linejoin="round"/>
<path d="M24 32.5C27.3137 32.5 30 29.8137 30 26.5C30 23.1863 27.3137 20.5 24 20.5C20.6863 20.5 18 23.1863 18 26.5C18 29.8137 20.6863 32.5 24 32.5Z" stroke="#ACC8CE" stroke-width="4" stroke-linecap="round" stroke-linejoin="round"/>
</svg>
