<svg width="100" height="21" viewBox="0 0 100 21" fill="none" xmlns="http://www.w3.org/2000/svg">
<path d="M6.335 19.9879H2.5669V10.4941H0V7.40311H2.5668V5.20365C2.5668 2.59729 3.7021 0.728027 7.46 0.728027C8.2548 0.728027 9.5026 0.889939 9.5026 0.889939V3.76009H8.192C6.8566 3.76009 6.3352 4.17063 6.3352 5.30563V7.40311H9.4526L9.175 10.4941H6.3351L6.335 19.9879ZM14.981 7.1561C14.9261 7.1561 14.8696 7.15812 14.8137 7.15954C11.3197 7.15954 9.7211 9.81582 9.7211 13.5865C9.7211 18.3365 11.7947 20.2376 14.841 20.2376C16.5839 20.2376 17.729 19.4962 18.425 18.1126V19.9892H22.009V7.40443H18.425V9.33979C17.8567 8.09462 16.6796 7.17086 14.981 7.1561ZM15.8923 10.1298C17.3598 10.1298 18.2406 11.1644 18.2406 12.9241L18.244 14.7214C18.244 15.9074 17.5165 17.295 15.8923 17.295C13.3953 17.295 13.462 14.57 13.462 13.6624C13.462 10.6094 14.7924 10.1298 15.8923 10.1298ZM23.4564 13.6975C23.4564 12.1682 23.384 7.16429 29.8344 7.16429C32.4237 7.16429 33.5049 7.99639 33.5049 7.99639L32.6359 10.7205C32.6359 10.7205 31.5561 10.1195 30.1491 10.1195C28.347 10.1195 27.1971 11.1754 27.1971 13.0331L27.1991 14.3652C27.1991 16.1503 28.3086 17.3419 30.1528 17.3419C31.4346 17.3419 32.616 16.7353 32.616 16.7353L33.4828 19.4025C33.4828 19.4025 32.4942 20.2398 29.8525 20.2398C23.7107 20.2398 23.4565 15.7504 23.4565 13.6975H23.4564ZM54.5192 7.15954C58.0133 7.15954 59.6371 9.81582 59.6371 13.5865C59.6371 18.3365 57.5634 20.2376 54.5171 20.2376C52.7742 20.2376 51.4858 19.4963 50.7898 18.1126V19.9892L47.2509 19.9878V1.11067L51.0083 0.779471V9.16929C51.5506 7.70147 53.3328 7.15954 54.5193 7.15954H54.5192ZM53.4658 10.1298C51.9983 10.1298 51.0083 11.1644 51.0083 12.9241L51.0048 14.7214C51.0026 15.9074 51.6904 17.295 53.4658 17.295C55.9628 17.295 55.8961 14.57 55.8961 13.6624C55.8961 10.6094 54.5658 10.1298 53.4658 10.1298ZM40.0243 7.16995C36.0613 7.16995 33.9691 9.35374 33.9691 13.2346V13.9556C33.9691 18.9926 36.9072 20.2894 40.41 20.2894C43.8147 20.2894 45.3558 19.3269 45.3558 19.3269L44.6527 16.7638C44.6527 16.7638 42.8399 17.5433 40.8605 17.5433C38.8085 17.5433 37.926 17.0147 37.6998 15.0217H45.6562V12.9654C45.6562 8.75571 43.3081 7.16984 40.0242 7.16984L40.0243 7.16995ZM40.1198 9.73649C41.4916 9.73649 42.3805 10.5867 42.3317 12.5584H37.7067C37.7869 10.4832 38.7455 9.73659 40.1198 9.73659V9.73649ZM67.1292 7.15266C63.0595 7.15266 60.917 9.47057 60.917 13.6244C60.917 19.3237 64.6102 20.2411 67.136 20.2411C70.8336 20.2411 73.2936 18.2291 73.2936 13.6761C73.2936 8.93734 70.5276 7.15266 67.1292 7.15266ZM67.078 10.1402C68.8675 10.1402 69.5766 11.4938 69.5766 13.0346V14.3593C69.5766 16.2258 68.5844 17.3054 67.0712 17.3054C65.656 17.3054 64.6614 16.2955 64.6614 14.3593V13.0346C64.6614 10.9695 65.8449 10.1402 67.078 10.1402ZM80.779 7.15266C76.7093 7.15266 74.5668 9.47057 74.5668 13.6244C74.5668 19.3237 78.26 20.2411 80.7858 20.2411C84.4833 20.2411 86.9434 18.2291 86.9434 13.6761C86.9434 8.93734 84.1773 7.15266 80.779 7.15266ZM80.7278 10.1402C82.5173 10.1402 83.2263 11.4938 83.2263 13.0346V14.3593C83.2263 16.2258 82.2341 17.3054 80.721 17.3054C79.3058 17.3054 78.3112 16.2955 78.3112 14.3593V13.0346C78.3112 10.9695 79.4947 10.1402 80.7278 10.1402ZM88.3633 19.9879V1.11067L92.1316 0.779471V13.4322L95.8702 7.40311H99.8498L95.9498 13.6474L100 19.9879H96.0091L92.1316 13.8314V19.9879H88.3633Z" fill="#D8D8D8"/>
</svg>
