<svg width="218" height="44" viewBox="0 0 218 44" fill="none" xmlns="http://www.w3.org/2000/svg">
<path d="M24.9587 6.68292L28.1554 13.0769C28.5914 13.967 29.7538 14.8207 30.7346 14.9842L36.5287 15.947C40.234 16.5646 41.1058 19.2529 38.4358 21.905L33.9314 26.4099C33.1685 27.1728 32.7507 28.6441 32.9869 29.6977L34.2765 35.2743C35.2936 39.6883 32.9505 41.3958 29.0454 39.0889L23.6146 35.8737C22.6338 35.2925 21.0173 35.2925 20.0183 35.8737L14.5875 39.0889C10.7006 41.3958 8.33933 39.6702 9.35647 35.2743L10.6461 29.6977C10.8822 28.6441 10.4644 27.1728 9.70158 26.4099L5.19709 21.905C2.54525 19.2529 3.39893 16.5646 7.10423 15.947L12.8983 14.9842C13.861 14.8207 15.0234 13.967 15.4593 13.0769L18.6561 6.68292C20.3997 3.21344 23.2332 3.21344 24.9587 6.68292Z" stroke="#ACC8CE" stroke-width="4" stroke-linecap="round" stroke-linejoin="round"/>
<path d="M68.5505 6.68292L71.7472 13.0769C72.1832 13.967 73.3456 14.8207 74.3264 14.9842L80.1205 15.947C83.8258 16.5646 84.6976 19.2529 82.0276 21.905L77.5232 26.4099C76.7603 27.1728 76.3425 28.6441 76.5787 29.6977L77.8683 35.2743C78.8854 39.6883 76.5423 41.3958 72.6372 39.0889L67.2064 35.8737C66.2256 35.2925 64.6091 35.2925 63.6101 35.8737L58.1793 39.0889C54.2924 41.3958 51.9311 39.6702 52.9483 35.2743L54.2379 29.6977C54.474 28.6441 54.0562 27.1728 53.2934 26.4099L48.7889 21.905C46.1371 19.2529 46.9907 16.5646 50.696 15.947L56.4901 14.9842C57.4528 14.8207 58.6152 13.967 59.0511 13.0769L62.2479 6.68292C63.9915 3.21344 66.825 3.21344 68.5505 6.68292Z" stroke="#ACC8CE" stroke-width="4" stroke-linecap="round" stroke-linejoin="round"/>
<path d="M112.142 6.68292L115.339 13.0769C115.775 13.967 116.937 14.8207 117.918 14.9842L123.712 15.947C127.418 16.5646 128.289 19.2529 125.619 21.905L121.115 26.4099C120.352 27.1728 119.934 28.6441 120.17 29.6977L121.46 35.2743C122.477 39.6883 120.134 41.3958 116.229 39.0889L110.798 35.8737C109.817 35.2925 108.201 35.2925 107.202 35.8737L101.771 39.0889C97.8842 41.3958 95.5229 39.6702 96.5401 35.2743L97.8297 29.6977C98.0658 28.6441 97.648 27.1728 96.8852 26.4099L92.3807 21.905C89.7288 19.2529 90.5825 16.5646 94.2878 15.947L100.082 14.9842C101.045 14.8207 102.207 13.967 102.643 13.0769L105.84 6.68292C107.583 3.21344 110.417 3.21344 112.142 6.68292Z" stroke="#ACC8CE" stroke-width="4" stroke-linecap="round" stroke-linejoin="round"/>
<path d="M155.734 6.68292L158.931 13.0769C159.367 13.967 160.529 14.8207 161.51 14.9842L167.304 15.947C171.009 16.5646 171.881 19.2529 169.211 21.905L164.707 26.4099C163.944 27.1728 163.526 28.6441 163.762 29.6977L165.052 35.2743C166.069 39.6883 163.726 41.3958 159.821 39.0889L154.39 35.8737C153.409 35.2925 151.793 35.2925 150.794 35.8737L145.363 39.0889C141.476 41.3958 139.115 39.6702 140.132 35.2743L141.421 29.6977C141.658 28.6441 141.24 27.1728 140.477 26.4099L135.972 21.905C133.321 19.2529 134.174 16.5646 137.88 15.947L143.674 14.9842C144.636 14.8207 145.799 13.967 146.235 13.0769L149.431 6.68292C151.175 3.21344 154.009 3.21344 155.734 6.68292Z" stroke="#ACC8CE" stroke-width="4" stroke-linecap="round" stroke-linejoin="round"/>
<path d="M199.326 6.68292L202.523 13.0769C202.959 13.967 204.121 14.8207 205.102 14.9842L210.896 15.947C214.601 16.5646 215.473 19.2529 212.803 21.905L208.299 26.4099C207.536 27.1728 207.118 28.6441 207.354 29.6977L208.644 35.2743C209.661 39.6883 207.318 41.3958 203.413 39.0889L197.982 35.8737C197.001 35.2925 195.385 35.2925 194.386 35.8737L188.955 39.0889C185.068 41.3958 182.707 39.6702 183.724 35.2743L185.013 29.6977C185.249 28.6441 184.832 27.1728 184.069 26.4099L179.564 21.905C176.913 19.2529 177.766 16.5646 181.472 15.947L187.266 14.9842C188.228 14.8207 189.391 13.967 189.827 13.0769L193.023 6.68292C194.767 3.21344 197.601 3.21344 199.326 6.68292Z" stroke="#ACC8CE" stroke-width="4" stroke-linecap="round" stroke-linejoin="round"/>
</svg>
