<svg width="48" height="49" viewBox="0 0 48 49" fill="none" xmlns="http://www.w3.org/2000/svg">
<path d="M8 26.5C11.5662 26.9238 14.8861 28.5351 17.4255 31.0745C19.9649 33.6139 21.5762 36.9338 22 40.5C23.7678 39.4808 25.2466 38.0277 26.2965 36.2779C27.3463 34.5281 27.9326 32.5395 28 30.5C31.3582 29.3186 34.2907 27.168 36.4267 24.32C38.5627 21.4721 39.8062 18.0547 40 14.5C40 12.9087 39.3679 11.3826 38.2426 10.2574C37.1174 9.13214 35.5913 8.5 34 8.5C30.4453 8.69382 27.0279 9.93733 24.18 12.0733C21.332 14.2093 19.1814 17.1418 18 20.5C15.9605 20.5674 13.9719 21.1537 12.2221 22.2035C10.4723 23.2534 9.01918 24.7322 8 26.5Z" stroke="#ACC8CE" stroke-width="4" stroke-linecap="round" stroke-linejoin="round"/>
<path d="M14 28.5C11.9184 29.6751 10.2353 31.4452 9.1663 33.5832C8.0973 35.7211 7.69118 38.1297 7.99999 40.5C10.3703 40.8088 12.7788 40.4027 14.9168 39.3337C17.0548 38.2647 18.8248 36.5815 20 34.5" stroke="#ACC8CE" stroke-width="4" stroke-linecap="round" stroke-linejoin="round"/>
<path d="M30 20.5C31.1046 20.5 32 19.6046 32 18.5C32 17.3954 31.1046 16.5 30 16.5C28.8954 16.5 28 17.3954 28 18.5C28 19.6046 28.8954 20.5 30 20.5Z" stroke="#ACC8CE" stroke-width="4" stroke-linecap="round" stroke-linejoin="round"/>
</svg>
