<svg width="50" height="45" viewBox="0 0 50 45" fill="none" xmlns="http://www.w3.org/2000/svg">
<g clip-path="url(#clip0_163_1191)">
<path d="M9.51966 3.23646L9.78931 3.8125H10.4253H46.1024C47.714 3.8125 48.9194 5.37248 48.4873 6.98305L48.4867 6.98523L44.928 20.3696C44.928 20.3698 44.9279 20.37 44.9279 20.3702C44.3043 22.7016 42.2197 24.3125 39.8611 24.3125H14.8177H13.6132L13.8348 25.4964L14.3035 28.0013L14.3044 28.0062C14.5838 29.459 15.846 30.5312 17.3351 30.5312H42.3611C42.9517 30.5312 43.4444 31.0122 43.4444 31.6406C43.4444 32.269 42.9517 32.75 42.3611 32.75H17.3351C14.8206 32.75 12.6496 30.9385 12.181 28.4251L12.1807 28.4236L7.7026 4.61104C7.70239 4.60987 7.70217 4.6087 7.70196 4.60753C7.5528 3.79714 6.85073 3.21875 6.03299 3.21875H2.08333C1.49278 3.21875 1 2.73778 1 2.10938C1 1.48097 1.49278 1 2.08333 1H6.03299C7.54233 1 8.889 1.88918 9.51966 3.23646ZM12.1111 40.7812C12.1111 40.3568 12.1937 39.9369 12.3538 39.5454C12.514 39.154 12.7483 38.7992 13.043 38.5008C13.3376 38.2025 13.6867 37.9666 14.07 37.8058L13.6833 36.8836L14.07 37.8058C14.4533 37.6451 14.8637 37.5625 15.2778 37.5625C15.6919 37.5625 16.1022 37.6451 16.4855 37.8058L16.8723 36.8836L16.4855 37.8058C16.8689 37.9666 17.2179 38.2025 17.5126 38.5008C17.8072 38.7992 18.0416 39.154 18.2017 39.5454C18.3619 39.9369 18.4444 40.3568 18.4444 40.7812C18.4444 41.2057 18.3619 41.6256 18.2017 42.0171C18.0416 42.4085 17.8072 42.7633 17.5126 43.0617C17.2179 43.36 16.8688 43.5959 16.4855 43.7567C16.1023 43.9174 15.6919 44 15.2778 44C14.8637 44 14.4533 43.9174 14.07 43.7567C13.6867 43.5959 13.3376 43.36 13.043 43.0617C12.7483 42.7633 12.514 42.4085 12.3538 42.0171C12.1937 41.6256 12.1111 41.2057 12.1111 40.7812ZM40.2778 37.5625C41.1136 37.5625 41.9177 37.8986 42.5126 38.5008C43.1078 39.1035 43.4444 39.9236 43.4444 40.7812C43.4444 41.6389 43.1078 42.459 42.5126 43.0617C41.9177 43.6639 41.1136 44 40.2778 44C39.442 44 38.6378 43.6639 38.043 43.0617C37.4477 42.459 37.1111 41.6389 37.1111 40.7812C37.1111 39.9236 37.4477 39.1035 38.043 38.5008C38.6378 37.8986 39.442 37.5625 40.2778 37.5625Z" stroke="black" stroke-width="2"/>
</g>
<defs>
<clipPath id="clip0_163_1191">
<rect width="50" height="45" fill="white"/>
</clipPath>
</defs>
</svg>
