<svg width="100" height="34" viewBox="0 0 100 34" fill="none" xmlns="http://www.w3.org/2000/svg">
<path d="M12.3162 0.0126953H13.2054C16.2927 0.0805279 19.3297 1.33543 21.511 3.55695C20.7056 4.3879 19.8834 5.18493 19.0948 6.01588C17.8699 4.89664 16.3934 4.03178 14.7826 3.72653C12.4 3.21779 9.83288 3.67566 7.8362 5.04927C5.65495 6.49071 4.17842 8.93268 3.85962 11.5442C3.50726 14.1219 4.22875 16.8352 5.88986 18.8362C7.48385 20.7864 9.91678 22.0074 12.4336 22.0922C14.7826 22.2279 17.2323 21.4987 18.9438 19.8368C20.2861 18.6667 20.9069 16.8861 21.1083 15.1563C18.323 15.1563 15.5377 15.1733 12.7524 15.1563V11.6629H24.4808C25.0848 15.4107 24.2123 19.6333 21.3935 22.3127C19.5143 24.212 16.9136 25.3312 14.2625 25.5517C11.6953 25.806 9.04428 25.3143 6.76236 24.0594C4.02741 22.584 1.84616 20.0911 0.772315 17.1574C-0.234415 14.461 -0.251194 11.4086 0.68842 8.69527C1.54414 6.21938 3.18847 4.03178 5.3026 2.50554C7.33284 0.996268 9.79933 0.165319 12.3162 0.0126953Z" fill="#D8D8D8"/>
<path d="M79.5997 0.894531H83.1904V25.1107C81.9991 25.1107 80.791 25.1277 79.5997 25.0938C79.6165 17.0387 79.5997 8.9666 79.5997 0.894531Z" fill="#D8D8D8"/>
<path d="M32.4671 9.2891C34.6819 8.86515 37.0812 9.33998 38.9101 10.6797C40.5712 11.8667 41.729 13.7321 42.0813 15.7671C42.5344 18.1242 41.9639 20.7018 40.4538 22.5672C38.8263 24.6531 36.1584 25.7723 33.5577 25.6027C31.1751 25.4671 28.8596 24.263 27.4502 22.2959C25.8562 20.1253 25.4703 17.1407 26.3428 14.597C27.2153 11.8667 29.6818 9.78088 32.4671 9.2891ZM32.9704 12.5111C32.0644 12.7485 31.2254 13.2742 30.6214 14.0204C28.9938 15.9875 29.0945 19.1926 30.8899 21.0241C31.9134 22.0754 33.457 22.5672 34.8832 22.2789C36.2087 22.0415 37.3665 21.1428 38.0041 19.9557C39.1115 17.9377 38.7927 15.1566 37.098 13.5795C36.0074 12.562 34.4134 12.138 32.9704 12.5111Z" fill="#D8D8D8"/>
<path d="M50.2513 9.28889C52.7849 8.7971 55.5535 9.50934 57.4495 11.3069C60.5368 14.105 60.8724 19.3451 58.2381 22.5671C56.6441 24.6021 54.0601 25.7214 51.5098 25.6027C49.0768 25.5348 46.6774 24.3138 45.2345 22.2958C43.6069 20.0743 43.2546 17.0218 44.1774 14.4272C45.1002 11.7817 47.5164 9.76372 50.2513 9.28889ZM50.7547 12.5109C49.8486 12.7484 49.0097 13.2741 48.4057 14.0033C46.7949 15.9365 46.862 19.0907 48.5902 20.9392C49.6137 22.0414 51.2077 22.5841 52.6843 22.2789C53.993 22.0245 55.1675 21.1427 55.8051 19.9556C56.8958 17.9206 56.577 15.1395 54.8655 13.5623C53.7749 12.5449 52.1809 12.1379 50.7547 12.5109Z" fill="#D8D8D8"/>
<path d="M65.3373 10.2725C67.2669 9.05151 69.834 8.71235 71.9146 9.76375C72.569 10.052 73.1059 10.5438 73.6261 11.0356C73.6428 10.5777 73.6261 10.1029 73.6428 9.62809C74.767 9.64505 75.8912 9.62809 77.0322 9.64505V24.6021C77.0154 26.8575 76.4449 29.2486 74.8341 30.8936C73.0724 32.7081 70.371 33.2677 67.938 32.8946C65.3373 32.5046 63.0722 30.5883 62.0654 28.1633C63.0722 27.6715 64.1292 27.2815 65.1695 26.8236C65.7568 28.2142 66.9481 29.4013 68.4414 29.6726C69.9347 29.9439 71.6629 29.5708 72.6361 28.3159C73.6764 27.0271 73.6764 25.2635 73.6261 23.6864C72.8542 24.4495 71.965 25.1278 70.8911 25.3822C68.5588 26.0435 65.9917 25.2296 64.1963 23.6355C62.3842 22.0414 61.3104 19.5825 61.411 17.1405C61.4614 14.3764 63.005 11.7139 65.3373 10.2725ZM68.8105 12.4431C67.787 12.6127 66.8306 13.1893 66.1762 13.9863C64.599 15.8856 64.599 18.9211 66.193 20.7865C67.0991 21.8888 68.5588 22.4993 69.9683 22.3467C71.2938 22.211 72.5187 21.3631 73.173 20.193C74.2804 18.2089 74.0959 15.5126 72.6025 13.7828C71.6797 12.7145 70.2032 12.1888 68.8105 12.4431Z" fill="#D8D8D8"/>
<path d="M87.4997 11.1372C89.5132 9.23789 92.6173 8.59349 95.2012 9.59402C97.6509 10.5267 99.2113 12.8839 99.9999 15.3089C96.3589 16.8351 92.7347 18.3444 89.0937 19.8706C89.5971 20.8373 90.3689 21.7191 91.4092 22.0752C92.8689 22.6009 94.6139 22.4144 95.8388 21.4308C96.3254 21.0577 96.7113 20.5659 97.0804 20.0911C98.0033 20.7186 98.9261 21.329 99.8489 21.9565C98.5402 23.9406 96.3422 25.3312 93.9763 25.5516C91.3588 25.8738 88.5736 24.8563 86.8789 22.7874C84.0936 19.5315 84.3621 14.071 87.4997 11.1372ZM89.295 14.2745C88.7246 15.1054 88.4897 16.1229 88.5064 17.1234C90.9394 16.1059 93.3723 15.0885 95.8052 14.054C95.4025 13.1043 94.4294 12.5278 93.4394 12.3751C91.8454 12.0869 90.1843 12.9517 89.295 14.2745Z" fill="#D8D8D8"/>
</svg>
