<svg width="100" height="23" viewBox="0 0 100 23" fill="none" xmlns="http://www.w3.org/2000/svg">
<path d="M16.6784 22.6452L10.1253 22.524C8.00346 22.4818 5.87644 22.5662 3.79633 22.1288C0.631864 21.4755 0.407692 18.2719 0.173094 15.5848C-0.15013 11.8069 -0.0250112 7.9606 0.584944 4.21437C0.929021 2.11205 2.28448 0.858038 4.38022 0.721045C11.4547 0.225762 18.576 0.283721 25.6348 0.515555C26.3803 0.536631 27.131 0.652548 27.8661 0.784272C31.4946 1.42709 31.5832 5.0574 31.8178 8.1134C32.0524 11.201 31.9533 14.3044 31.505 17.371C31.1453 19.9106 30.4571 22.0393 27.5533 22.2447C23.9144 22.5135 20.359 22.7295 16.7097 22.661C16.7097 22.6452 16.6888 22.6452 16.6784 22.6452ZM12.8258 16.2171C15.5679 14.6258 18.258 13.0609 20.9846 11.4803C18.2372 9.88903 15.5523 8.32415 12.8258 6.74347V16.2171Z" fill="#D8D8D8"/>
<path d="M84.3803 19.758C84.2552 20.2743 84.1457 20.6801 84.0362 21.1121H81.4713V1.11621H84.4637V8.49283C84.6201 8.29261 84.6983 8.2083 84.7661 8.11873C85.277 7.40741 85.9391 6.94374 86.7941 6.76459C88.1547 6.49587 89.3173 7.10181 89.7291 8.42433C89.995 9.2463 90.167 10.1262 90.1879 10.9851C90.2296 13.1928 90.1983 15.3952 90.1201 17.603C90.0888 18.2774 89.8855 18.9676 89.6301 19.5999C88.7907 21.6864 86.0485 22.0026 84.6879 20.1953C84.6045 20.0847 84.5263 19.9635 84.3803 19.758ZM84.5263 14.2571V17.9138C84.5263 18.5092 84.8391 18.8728 85.4282 19.0098C86.0068 19.1468 86.476 18.9202 86.7106 18.3775C86.8097 18.1509 86.9087 17.9138 86.914 17.6767C86.9713 15.4427 87.0234 13.2086 87.0391 10.9693C87.0391 10.553 86.94 10.121 86.8149 9.71524C86.5803 8.98285 85.9339 8.76682 85.2978 9.19361C84.8182 9.52029 84.5263 9.98396 84.5263 10.6004V14.2571ZM76.3935 7.04912H79.5267V21.1227H77.0817C76.9931 20.5905 76.9045 20.0425 76.8002 19.3997C76.6334 19.6473 76.5343 19.8054 76.43 19.9635C75.6168 21.149 74.4646 21.5547 73.104 21.3387C71.9414 21.149 71.2428 20.2427 71.0864 18.7569C71.0395 18.3143 71.0187 17.8664 71.0187 17.4238C71.0082 14.1307 71.0187 10.827 71.0187 7.53387V7.03858H74.1883V7.6129C74.1883 10.7954 74.1779 13.9726 74.1988 17.1551C74.1988 17.6082 74.2457 18.0772 74.3239 18.5303C74.4125 18.994 74.7462 19.1626 75.1945 19.131C75.9191 19.073 76.4196 18.5303 76.4196 17.8032V7.67086C76.3935 7.46537 76.3935 7.27569 76.3935 7.04912ZM54.821 7.03858H57.9698V7.63398C57.9698 10.8007 57.9594 13.9621 57.9802 17.1182C57.9802 17.5713 58.0219 18.0403 58.1158 18.4829C58.2357 19.0045 58.538 19.1731 59.0542 19.1046C59.7684 19.0045 60.2011 18.504 60.2063 17.7716V7.69194V7.05966H63.3395V21.1227H60.9049C60.8163 20.601 60.7276 20.0636 60.6129 19.3839C60.4565 19.621 60.3679 19.758 60.2793 19.9002C59.466 21.1068 58.3243 21.5494 56.9324 21.3334C55.8167 21.1648 55.1338 20.3323 54.9252 18.9676C54.8679 18.5408 54.8262 18.1193 54.8262 17.6925C54.8158 14.2729 54.8158 10.8375 54.8158 7.41795L54.821 7.03858ZM53.2049 14.5522C53.1944 15.0264 53.1632 15.5006 53.1371 15.9748C53.0172 17.3975 52.9598 19.4155 51.8233 20.4535C51.0987 21.1068 50.1812 21.344 49.2323 21.3756C48.8101 21.3861 48.3826 21.3861 47.9603 21.3281C45.9636 21.0225 45.0356 20.1321 44.702 17.9138C44.3214 15.3531 44.2901 12.7502 44.7437 10.1895C45.2129 7.53914 46.829 6.60125 49.3418 6.77513C51.6878 6.94374 52.7357 8.4981 53.012 10.7111C53.1632 11.9809 53.2361 13.2666 53.2049 14.5522ZM50.0143 14.0674C50.0143 13.1664 50.0352 12.2602 50.0039 11.3592C49.983 10.8375 49.9153 10.3106 49.8058 9.79428C49.6807 9.19888 49.3053 8.91435 48.8361 8.92489C48.3774 8.93543 48.0541 9.21995 47.8873 9.7732C47.83 9.97869 47.7674 10.1895 47.7674 10.3949C47.7674 11.807 47.757 13.2244 47.7465 14.6365C47.7361 15.9538 47.5693 17.3342 47.9811 18.5935C48.1063 18.9782 48.4295 19.1889 48.8518 19.1889C49.2636 19.1889 49.5347 18.9834 49.6859 18.6146C49.8058 18.3301 49.9101 18.0192 49.9101 17.7136C49.9466 16.5017 50.0143 15.2846 50.0143 14.0674ZM40.1039 11.4171C40.3802 10.0525 40.6408 8.7194 40.9276 7.38107C41.2873 5.67918 41.6887 3.97728 42.0432 2.27012C42.1318 1.85387 42.2987 1.75376 42.6897 1.7643C43.529 1.79591 44.384 1.77484 45.2807 1.77484C44.9887 2.86025 44.702 3.89298 44.4205 4.9099C43.529 8.10292 42.6375 11.3065 41.7565 14.51C41.6887 14.7577 41.6574 15.0264 41.6574 15.2899C41.647 17.0392 41.6574 18.7832 41.6574 20.5325V21.1016H38.5972C38.5868 20.9435 38.566 20.7854 38.566 20.6274C38.566 19.6368 38.4878 18.6409 38.5764 17.6609C38.8006 15.3057 38.0603 13.1401 37.4607 10.9482C36.6683 8.05023 35.8655 5.14174 35.0731 2.24378C35.0313 2.10679 35.0157 1.95925 34.974 1.79064H38.0968C38.7536 4.98894 39.4157 8.18723 40.1039 11.4171ZM99.9784 15.0896H94.7026C94.76 16.1592 94.7808 17.1762 94.8903 18.1825C94.9685 18.8833 95.349 19.1837 95.9486 19.1889C96.5742 19.1995 96.9391 18.8833 97.0851 18.1878C97.132 17.9612 97.1633 17.7347 97.1841 17.5028C97.205 17.2973 97.2154 17.0761 97.2311 16.781C98.1225 16.8284 98.9931 16.8811 99.8533 16.918C100.354 18.4196 99.4519 20.3481 97.9348 20.9435C96.741 21.4177 95.5159 21.4177 94.296 21.0542C93.3941 20.7854 92.7216 20.2058 92.4192 19.3154C92.1377 18.4829 91.8718 17.6135 91.8144 16.7441C91.658 14.5996 91.6007 12.4341 91.9239 10.2843C91.9813 9.926 92.0803 9.58352 92.1898 9.23576C92.6277 7.80259 93.5817 6.92266 95.0571 6.77513C95.86 6.6961 96.6889 6.72771 97.4813 6.8647C98.7638 7.09127 99.4467 8.02389 99.7439 9.2463C99.8794 9.82062 99.9784 10.4107 99.9993 10.9956C100.005 12.3392 99.9784 13.6723 99.9784 15.0896ZM96.9808 13.2402C96.9808 12.1811 96.9912 11.1853 96.9704 10.1842C96.9704 9.94708 96.8818 9.69943 96.7931 9.47287C96.6159 9.03027 96.2457 8.90908 95.8026 8.90908C95.3595 8.90908 95.078 9.13565 94.9685 9.54136C94.6348 10.7585 94.7443 12.002 94.7547 13.2507C95.5524 13.2402 96.277 13.2402 96.9808 13.2402Z" fill="#D8D8D8"/>
<path d="M65.7581 4.35705H62.6562V1.81738H71.915V4.34124H68.834V21.102H65.7634L65.7581 4.35705Z" fill="#D8D8D8"/>
</svg>
